# xmcd CD database file
#
# Track frame offsets:
#	150
#	16647
#	39144
#	64881
#	91594
#	116409
#	132745
#	155515
#	172357
#	194587
#	213168
#	234646
#
# Disc length: 3641 seconds
#
# Revision: 1
# Processed by: cddbd v1.5.2PL0 Copyright (c) Steve Scherf et al.
# Submitted via: CDex 1.51
#
DISCID=9f0e370c
DTITLE=Blue Connection - Brand New Dance
DYEAR=2008
DGENRE=Jazz
TTITLE0=Brand New Dance
TTITLE1=Homeboy
TTITLE2=String Puppets
TTITLE3=Pot Of Pain
TTITLE4=Hit Me
TTITLE5=Got You
TTITLE6=I Amsterdam
TTITLE7=Bleeding Soul
TTITLE8=I'll Remember Powerplay
TTITLE9=Mango Magic
TTITLE10=What To Do
TTITLE11=1986
EXTD=YEAR: 2008
EXTT0=
EXTT1=
EXTT2=
EXTT3=
EXTT4=
EXTT5=
EXTT6=
EXTT7=
EXTT8=
EXTT9=
EXTT10=
EXTT11=
PLAYORDER=
